<svg version="1.1" id="Layer_1" xmlns="http://www.w3.org/2000/svg" xmlns:xlink="http://www.w3.org/1999/xlink" x="0px" y="0px"
	 width="100%" viewBox="0 0 924 882" enable-background="new 0 0 924 882" xml:space="preserve">
<path fill="#14222F" opacity="1.000000" stroke="none" 
	d="
M547.000000,883.000000 
	C364.666656,883.000000 182.833328,883.000000 1.000000,883.000000 
	C1.000000,589.000000 1.000000,295.000000 1.000000,1.000000 
	C309.000000,1.000000 617.000000,1.000000 925.000000,1.000000 
	C925.000000,295.000000 925.000000,589.000000 925.000000,883.000000 
	C799.166687,883.000000 673.333313,883.000000 547.000000,883.000000 
M396.048859,150.616638 
	C395.960907,170.948776 395.854828,191.280853 395.787933,211.613068 
	C395.307495,357.607086 394.810486,503.601044 394.398651,649.595276 
	C394.358215,663.924988 394.700256,678.261353 395.158173,692.585205 
	C395.471375,702.383972 402.509277,709.866028 411.712463,709.915222 
	C453.872009,710.140747 496.033051,710.266479 538.192871,710.157349 
	C549.373474,710.128418 553.537842,705.506592 553.539185,694.435669 
	C553.559998,516.107178 553.566040,337.778717 553.430054,159.450333 
	C553.428040,156.745132 552.208069,153.550049 550.511780,151.412720 
	C533.214783,129.618423 515.705994,107.992081 498.245300,86.327797 
	C489.386627,75.336433 480.505035,64.363525 471.339722,53.018204 
	C469.406494,55.255959 467.765594,57.104679 466.179321,58.999161 
	C444.250214,85.188766 422.410706,111.454323 400.313080,137.500931 
	C397.145721,141.234360 395.870941,145.045334 396.048859,150.616638 
M293.499146,609.231384 
	C318.824249,609.229858 344.149384,609.255005 369.474426,609.211914 
	C378.025574,609.197388 382.735229,605.100342 384.056976,596.646545 
	C384.390045,594.516296 384.551666,592.337280 384.552765,590.180542 
	C384.562195,571.520569 384.493042,552.860596 384.491882,534.200623 
	C384.484344,413.240967 384.488037,292.281311 384.488068,171.321640 
	C384.488068,167.998566 384.488068,164.675491 384.488068,160.166367 
	C368.750549,178.949417 353.847626,196.736374 337.944824,215.716705 
	C337.944824,195.633987 337.944824,177.101913 337.944824,158.415115 
	C302.698822,158.415115 268.025024,158.415115 233.040543,158.415115 
	C233.040543,160.157806 233.042999,161.475861 233.040192,162.793930 
	C232.763885,292.250000 232.463699,421.706024 232.245956,551.162170 
	C232.223541,564.488159 232.600342,577.817505 232.963913,591.140564 
	C233.253815,601.763123 240.971542,609.194580 251.512772,609.221497 
	C265.174805,609.256348 278.836975,609.230896 293.499146,609.231384 
M689.491943,660.365540 
	C696.988708,660.270081 704.488220,660.269104 711.981628,660.055908 
	C721.920532,659.773132 726.059692,655.770081 726.060303,645.996765 
	C726.066223,553.693542 726.026306,461.390259 725.819031,369.087402 
	C725.812683,366.244965 724.511536,362.865570 722.699951,360.645660 
	C671.936340,298.441467 621.030090,236.353699 570.134949,174.256882 
	C569.156982,173.063660 568.031372,171.991531 566.118408,169.948364 
	C566.118408,172.704330 566.118347,174.157745 566.118408,175.611176 
	C566.124146,329.897095 566.129578,484.183014 566.137878,638.468933 
	C566.138000,640.634705 566.044373,642.810669 566.215088,644.964417 
	C566.943604,654.156799 572.322449,659.577759 581.550415,660.204895 
	C587.530029,660.611206 593.532959,660.891052 599.524292,660.871216 
	C629.180725,660.773193 658.836792,660.556580 689.491943,660.365540 
M223.081619,518.500000 
	C223.081619,466.354584 223.081619,414.209198 223.081619,360.595459 
	C167.598618,427.742828 113.205513,493.571167 57.852703,560.560974 
	C77.263161,560.560974 95.411362,560.560974 113.858566,560.560974 
	C113.858566,563.595276 113.858955,565.739624 113.858505,567.883972 
	C113.839729,657.513611 113.788300,747.143311 113.835068,836.772949 
	C113.842590,851.191528 120.586304,857.679932 135.106415,857.702637 
	C162.761780,857.745789 190.417252,857.719849 218.072678,857.702820 
	C219.654404,857.701843 221.236023,857.523071 223.081619,857.411072 
	C223.081619,744.383545 223.081619,631.941772 223.081619,518.500000 
M820.567993,482.895416 
	C792.402832,448.323029 764.237671,413.750671 735.438843,378.400482 
	C735.438843,456.492554 735.438843,533.167786 735.438843,610.041809 
	C762.182922,610.041809 788.494873,610.244934 814.800781,609.933228 
	C824.203674,609.821838 829.289978,603.838013 829.336365,594.460266 
	C829.384949,584.633240 829.546997,574.800110 829.263062,564.981140 
	C829.138794,560.685608 830.280884,559.119507 834.809937,559.260071 
	C845.126953,559.580200 855.460754,559.360229 865.787720,559.359863 
	C871.070007,559.359741 876.352295,559.359924 882.806824,559.359924 
	C861.703979,533.439514 841.355225,508.445435 820.567993,482.895416 
z"/>
<path fill="#B3A07A" opacity="1.000000" stroke="none" 
	d="
M396.051270,150.138733 
	C395.870941,145.045334 397.145721,141.234360 400.313080,137.500931 
	C422.410706,111.454323 444.250214,85.188766 466.179321,58.999161 
	C467.765594,57.104679 469.406494,55.255959 471.339722,53.018204 
	C480.505035,64.363525 489.386627,75.336433 498.245300,86.327797 
	C515.705994,107.992081 533.214783,129.618423 550.511780,151.412720 
	C552.208069,153.550049 553.428040,156.745132 553.430054,159.450333 
	C553.566040,337.778717 553.559998,516.107178 553.539185,694.435669 
	C553.537842,705.506592 549.373474,710.128418 538.192871,710.157349 
	C496.033051,710.266479 453.872009,710.140747 411.712463,709.915222 
	C402.509277,709.866028 395.471375,702.383972 395.158173,692.585205 
	C394.700256,678.261353 394.358215,663.924988 394.398651,649.595276 
	C394.810486,503.601044 395.307495,357.607086 395.787933,211.613068 
	C395.854828,191.280853 395.960907,170.948776 396.051270,150.138733 
M397.281250,571.499146 
	C397.339386,593.496826 397.319489,615.494995 397.480042,637.491943 
	C397.611359,655.489014 397.841522,673.487244 398.257812,691.479614 
	C398.466644,700.505249 404.160797,706.805725 412.047791,706.834290 
	C454.039276,706.986328 496.031281,707.080444 538.022949,707.032959 
	C547.341980,707.022400 550.310730,703.783508 550.311401,694.627930 
	C550.323730,516.645325 550.333801,338.662689 550.188416,160.680176 
	C550.186096,157.829285 548.880737,154.472488 547.095581,152.210175 
	C532.648132,133.900482 517.947571,115.790474 503.309235,97.631592 
	C492.766571,84.553337 482.201050,71.493500 471.346191,58.054657 
	C469.993286,59.584538 468.886566,60.779457 467.841583,62.026104 
	C446.648895,87.308144 425.529236,112.651939 404.210175,137.826904 
	C400.727997,141.938873 399.050995,145.920166 399.033295,151.544998 
	C398.594177,291.196777 397.916443,430.847839 397.281250,571.499146 
z"/>
<path fill="#B6A27B" opacity="1.000000" stroke="none" 
	d="
M292.999115,609.231384 
	C278.836975,609.230896 265.174805,609.256348 251.512772,609.221497 
	C240.971542,609.194580 233.253815,601.763123 232.963913,591.140564 
	C232.600342,577.817505 232.223541,564.488159 232.245956,551.162170 
	C232.463699,421.706024 232.763885,292.250000 233.040192,162.793930 
	C233.042999,161.475861 233.040543,160.157806 233.040543,158.415115 
	C268.025024,158.415115 302.698822,158.415115 337.944824,158.415115 
	C337.944824,177.101913 337.944824,195.633987 337.944824,215.716705 
	C353.847626,196.736374 368.750549,178.949417 384.488068,160.166367 
	C384.488068,164.675491 384.488068,167.998566 384.488068,171.321640 
	C384.488037,292.281311 384.484344,413.240967 384.491882,534.200623 
	C384.493042,552.860596 384.562195,571.520569 384.552765,590.180542 
	C384.551666,592.337280 384.390045,594.516296 384.056976,596.646545 
	C382.735229,605.100342 378.025574,609.197388 369.474426,609.211914 
	C344.149384,609.255005 318.824249,609.229858 292.999115,609.231384 
M378.789703,602.056946 
	C379.623840,596.048462 381.179993,590.040710 381.186096,584.031372 
	C381.324005,448.217743 381.292084,312.403931 381.292053,176.590134 
	C381.292053,174.547745 381.292023,172.505341 381.292023,170.462952 
	C380.903534,170.400299 380.515045,170.337662 380.126556,170.275009 
	C365.327332,187.935181 350.528107,205.595352 334.828247,224.330276 
	C334.828247,202.511154 334.828247,182.076569 334.828247,161.407715 
	C301.736450,161.407715 269.174988,161.407715 236.383789,161.407715 
	C236.295517,163.179520 236.160110,164.657928 236.156982,166.136627 
	C235.886322,293.950806 235.602829,421.764954 235.397964,549.579224 
	C235.375793,563.408203 235.718796,577.240479 236.072601,591.066528 
	C236.289078,599.525269 242.462158,606.033997 250.387207,606.049316 
	C290.381256,606.126526 330.375885,606.147583 370.368958,605.936340 
	C373.019257,605.922424 375.658539,603.819336 378.789703,602.056946 
z"/>
<path fill="#B7A27C" opacity="1.000000" stroke="none" 
	d="
M688.992432,660.373657 
	C658.836792,660.556580 629.180725,660.773193 599.524292,660.871216 
	C593.532959,660.891052 587.530029,660.611206 581.550415,660.204895 
	C572.322449,659.577759 566.943604,654.156799 566.215088,644.964417 
	C566.044373,642.810669 566.138000,640.634705 566.137878,638.468933 
	C566.129578,484.183014 566.124146,329.897095 566.118408,175.611176 
	C566.118347,174.157745 566.118408,172.704330 566.118408,169.948364 
	C568.031372,171.991531 569.156982,173.063660 570.134949,174.256882 
	C621.030090,236.353699 671.936340,298.441467 722.699951,360.645660 
	C724.511536,362.865570 725.812683,366.244965 725.819031,369.087402 
	C726.026306,461.390259 726.066223,553.693542 726.060303,645.996765 
	C726.059692,655.770081 721.920532,659.773132 711.981628,660.055908 
	C704.488220,660.269104 696.988708,660.270081 688.992432,660.373657 
M694.092163,330.431763 
	C652.915039,280.208801 611.737915,229.985840 570.560791,179.762878 
	C570.130615,179.984741 569.700378,180.206619 569.270203,180.428482 
	C569.270203,182.566391 569.270203,184.704285 569.270203,186.842194 
	C569.270203,337.803589 569.269531,488.764984 569.277344,639.726379 
	C569.277405,641.722717 569.202454,643.744202 569.474243,645.710876 
	C570.475464,652.957886 574.392761,656.632019 581.729187,657.085388 
	C587.547180,657.444885 593.381592,657.770691 599.206848,657.741394 
	C635.862671,657.557007 672.517944,657.270447 709.173401,657.014709 
	C720.713013,656.934143 723.013123,654.825195 723.010559,643.378418 
	C722.989685,551.902954 722.918579,460.427429 722.739624,368.952179 
	C722.735535,366.861542 721.749512,364.402435 720.430237,362.744873 
	C711.924744,352.057526 703.198853,341.545685 694.092163,330.431763 
z"/>
<path fill="#BBA57E" opacity="1.000000" stroke="none" 
	d="
M223.081619,519.000000 
	C223.081619,631.941772 223.081619,744.383545 223.081619,857.411072 
	C221.236023,857.523071 219.654404,857.701843 218.072678,857.702820 
	C190.417252,857.719849 162.761780,857.745789 135.106415,857.702637 
	C120.586304,857.679932 113.842590,851.191528 113.835068,836.772949 
	C113.788300,747.143311 113.839729,657.513611 113.858505,567.883972 
	C113.858955,565.739624 113.858566,563.595276 113.858566,560.560974 
	C95.411362,560.560974 77.263161,560.560974 57.852703,560.560974 
	C113.205513,493.571167 167.598618,427.742828 223.081619,360.595459 
	C223.081619,414.209198 223.081619,466.354584 223.081619,519.000000 
M116.946579,559.914551 
	C116.930977,652.208618 116.893959,744.502747 116.924782,836.796814 
	C116.929001,849.431519 122.253281,854.557190 135.005127,854.573486 
	C161.493881,854.607300 187.982712,854.590576 214.471497,854.569641 
	C216.213043,854.568298 217.954407,854.354614 219.695862,854.239685 
	C219.695862,692.679932 219.695862,531.700256 219.695862,369.557068 
	C167.827057,432.337433 116.653793,494.275940 64.610069,557.268005 
	C68.167801,557.268005 69.987289,557.267944 71.806786,557.268005 
	C85.134483,557.268311 98.462822,557.206848 111.789085,557.345154 
	C113.496361,557.362854 115.192856,558.419739 116.946579,559.914551 
z"/>
<path fill="#BCA67E" opacity="1.000000" stroke="none" 
	d="
M820.787231,483.173401 
	C841.355225,508.445435 861.703979,533.439514 882.806824,559.359924 
	C876.352295,559.359924 871.070007,559.359741 865.787720,559.359863 
	C855.460754,559.360229 845.126953,559.580200 834.809937,559.260071 
	C830.280884,559.119507 829.138794,560.685608 829.263062,564.981140 
	C829.546997,574.800110 829.384949,584.633240 829.336365,594.460266 
	C829.289978,603.838013 824.203674,609.821838 814.800781,609.933228 
	C788.494873,610.244934 762.182922,610.041809 735.438843,610.041809 
	C735.438843,533.167786 735.438843,456.492554 735.438843,378.400482 
	C764.237671,413.750671 792.402832,448.323029 820.787231,483.173401 
M738.118286,423.499969 
	C738.118286,484.581177 738.118286,545.662354 738.118286,606.962341 
	C764.073853,606.962341 789.230774,607.132324 814.382996,606.864624 
	C822.533569,606.777893 826.203308,602.266052 826.228027,593.992737 
	C826.260925,582.993286 826.378906,571.990906 826.161682,560.995667 
	C826.088135,557.272278 827.210083,556.105042 830.966553,556.164612 
	C843.962708,556.370850 856.964172,556.253967 869.963623,556.230042 
	C871.648376,556.226929 873.332886,556.048401 876.012512,555.893616 
	C829.915344,499.293121 784.595093,443.646545 739.274841,387.999939 
	C738.889282,388.207916 738.503784,388.415924 738.118286,388.623932 
	C738.118286,399.915924 738.118286,411.207947 738.118286,423.499969 
z"/>
<path fill="#14222F" opacity="1.000000" stroke="none" 
	d="
M397.281158,570.999084 
	C397.916443,430.847839 398.594177,291.196777 399.033295,151.544998 
	C399.050995,145.920166 400.727997,141.938873 404.210175,137.826904 
	C425.529236,112.651939 446.648895,87.308144 467.841583,62.026104 
	C468.886566,60.779457 469.993286,59.584538 471.346191,58.054657 
	C482.201050,71.493500 492.766571,84.553337 503.309235,97.631592 
	C517.947571,115.790474 532.648132,133.900482 547.095581,152.210175 
	C548.880737,154.472488 550.186096,157.829285 550.188416,160.680176 
	C550.333801,338.662689 550.323730,516.645325 550.311401,694.627930 
	C550.310730,703.783508 547.341980,707.022400 538.022949,707.032959 
	C496.031281,707.080444 454.039276,706.986328 412.047791,706.834290 
	C404.160797,706.805725 398.466644,700.505249 398.257812,691.479614 
	C397.841522,673.487244 397.611359,655.489014 397.480042,637.491943 
	C397.319489,615.494995 397.339386,593.496826 397.281158,570.999084 
z"/>
<path fill="#14222F" opacity="1.000000" stroke="none" 
	d="
M378.546326,602.372437 
	C375.658539,603.819336 373.019257,605.922424 370.368958,605.936340 
	C330.375885,606.147583 290.381256,606.126526 250.387207,606.049316 
	C242.462158,606.033997 236.289078,599.525269 236.072601,591.066528 
	C235.718796,577.240479 235.375793,563.408203 235.397964,549.579224 
	C235.602829,421.764954 235.886322,293.950806 236.156982,166.136627 
	C236.160110,164.657928 236.295517,163.179520 236.383789,161.407715 
	C269.174988,161.407715 301.736450,161.407715 334.828247,161.407715 
	C334.828247,182.076569 334.828247,202.511154 334.828247,224.330276 
	C350.528107,205.595352 365.327332,187.935181 380.126556,170.275009 
	C380.515045,170.337662 380.903534,170.400299 381.292023,170.462952 
	C381.292023,172.505341 381.292053,174.547745 381.292053,176.590134 
	C381.292084,312.403931 381.324005,448.217743 381.186096,584.031372 
	C381.179993,590.040710 379.623840,596.048462 378.546326,602.372437 
z"/>
<path fill="#152330" opacity="1.000000" stroke="none" 
	d="
M694.318726,330.704010 
	C703.198853,341.545685 711.924744,352.057526 720.430237,362.744873 
	C721.749512,364.402435 722.735535,366.861542 722.739624,368.952179 
	C722.918579,460.427429 722.989685,551.902954 723.010559,643.378418 
	C723.013123,654.825195 720.713013,656.934143 709.173401,657.014709 
	C672.517944,657.270447 635.862671,657.557007 599.206848,657.741394 
	C593.381592,657.770691 587.547180,657.444885 581.729187,657.085388 
	C574.392761,656.632019 570.475464,652.957886 569.474243,645.710876 
	C569.202454,643.744202 569.277405,641.722717 569.277344,639.726379 
	C569.269531,488.764984 569.270203,337.803589 569.270203,186.842194 
	C569.270203,184.704285 569.270203,182.566391 569.270203,180.428482 
	C569.700378,180.206619 570.130615,179.984741 570.560791,179.762878 
	C611.737915,229.985840 652.915039,280.208801 694.318726,330.704010 
M641.288757,526.441406 
	C641.288757,501.171509 641.288757,475.901611 641.288757,450.630951 
	C623.855652,450.630951 607.113220,450.630951 590.292114,450.630951 
	C590.292114,479.755249 590.292114,508.503662 590.292114,537.544312 
	C607.294983,537.544312 624.021729,537.544312 641.288757,537.544312 
	C641.288757,534.013794 641.288757,530.714783 641.288757,526.441406 
M687.482605,537.851562 
	C691.730591,537.851562 695.978577,537.851562 700.197815,537.851562 
	C700.442566,536.397827 700.645142,535.754395 700.645691,535.110901 
	C700.668762,508.113770 700.634766,481.116486 700.733154,454.119690 
	C700.744629,450.963135 699.502686,450.164703 696.582581,450.195312 
	C685.418274,450.312408 674.251953,450.240906 663.086426,450.240082 
	C658.639771,450.239746 654.193054,450.240051 649.609009,450.240051 
	C649.609009,479.778748 649.609009,508.635315 649.609009,537.851562 
	C662.192200,537.851562 674.340515,537.851562 687.482605,537.851562 
M590.013733,422.501648 
	C590.013733,428.933472 590.013733,435.365295 590.013733,441.843140 
	C607.422302,441.843140 624.147461,441.843140 640.949829,441.843140 
	C640.949829,415.794952 640.949829,390.068359 640.949829,364.376953 
	C619.487915,362.265961 597.892212,377.194336 592.196106,398.779724 
	C590.280029,406.040588 590.675049,413.911285 590.013733,422.501648 
M698.341553,442.153442 
	C701.027954,442.503113 702.191345,441.598328 702.134216,438.624176 
	C701.961609,429.638062 702.083740,420.646545 702.064819,411.657166 
	C702.044250,401.872162 699.216553,392.890442 693.573120,384.971863 
	C683.270508,370.515686 669.107117,363.748688 651.206421,364.076569 
	C651.206421,390.323883 651.206421,416.022980 651.206421,442.155182 
	C666.810730,442.155182 682.091431,442.155182 698.341553,442.153442 
z"/>
<path fill="#14222F" opacity="1.000000" stroke="none" 
	d="
M116.920456,559.454834 
	C115.192856,558.419739 113.496361,557.362854 111.789085,557.345154 
	C98.462822,557.206848 85.134483,557.268311 71.806786,557.268005 
	C69.987289,557.267944 68.167801,557.268005 64.610069,557.268005 
	C116.653793,494.275940 167.827057,432.337433 219.695862,369.557068 
	C219.695862,531.700256 219.695862,692.679932 219.695862,854.239685 
	C217.954407,854.354614 216.213043,854.568298 214.471497,854.569641 
	C187.982712,854.590576 161.493881,854.607300 135.005127,854.573486 
	C122.253281,854.557190 116.929001,849.431519 116.924782,836.796814 
	C116.893959,744.502747 116.930977,652.208618 116.920456,559.454834 
z"/>
<path fill="#15232F" opacity="1.000000" stroke="none" 
	d="
M738.118286,422.999939 
	C738.118286,411.207947 738.118286,399.915924 738.118286,388.623932 
	C738.503784,388.415924 738.889282,388.207916 739.274841,387.999939 
	C784.595093,443.646545 829.915344,499.293121 876.012512,555.893616 
	C873.332886,556.048401 871.648376,556.226929 869.963623,556.230042 
	C856.964172,556.253967 843.962708,556.370850 830.966553,556.164612 
	C827.210083,556.105042 826.088135,557.272278 826.161682,560.995667 
	C826.378906,571.990906 826.260925,582.993286 826.228027,593.992737 
	C826.203308,602.266052 822.533569,606.777893 814.382996,606.864624 
	C789.230774,607.132324 764.073853,606.962341 738.118286,606.962341 
	C738.118286,545.662354 738.118286,484.581177 738.118286,422.999939 
z"/>
<path fill="#C1AA80" opacity="1.000000" stroke="none" 
	d="
M641.288757,526.928589 
	C641.288757,530.714783 641.288757,534.013794 641.288757,537.544312 
	C624.021729,537.544312 607.294983,537.544312 590.292114,537.544312 
	C590.292114,508.503662 590.292114,479.755249 590.292114,450.630951 
	C607.113220,450.630951 623.855652,450.630951 641.288757,450.630951 
	C641.288757,475.901611 641.288757,501.171509 641.288757,526.928589 
M610.509277,531.788086 
	C618.610168,531.788086 626.711121,531.788086 634.904175,531.788086 
	C634.904175,506.331024 634.904175,481.597626 634.904175,456.709045 
	C621.879089,456.709045 609.183594,456.709045 596.357178,456.709045 
	C596.357178,481.820740 596.357178,506.538818 596.357178,531.788086 
	C600.935608,531.788086 605.225281,531.788086 610.509277,531.788086 
z"/>
<path fill="#BDA77F" opacity="1.000000" stroke="none" 
	d="
M686.985718,537.851562 
	C674.340515,537.851562 662.192200,537.851562 649.609009,537.851562 
	C649.609009,508.635315 649.609009,479.778748 649.609009,450.240051 
	C654.193054,450.240051 658.639771,450.239746 663.086426,450.240082 
	C674.251953,450.240906 685.418274,450.312408 696.582581,450.195312 
	C699.502686,450.164703 700.744629,450.963135 700.733154,454.119690 
	C700.634766,481.116486 700.668762,508.113770 700.645691,535.110901 
	C700.645142,535.754395 700.442566,536.397827 700.197815,537.851562 
	C695.978577,537.851562 691.730591,537.851562 686.985718,537.851562 
M655.244507,474.502197 
	C655.244507,493.412811 655.244507,512.323425 655.244507,531.762024 
	C667.871887,531.762024 679.810913,531.834045 691.745056,531.625488 
	C692.702881,531.608765 694.439880,529.664978 694.447266,528.607117 
	C694.607544,505.642761 694.617859,482.676666 694.443481,459.712524 
	C694.434875,458.579407 692.509460,456.506653 691.441040,456.483063 
	C680.462891,456.240723 669.476929,456.381500 658.494202,456.294312 
	C655.718018,456.272278 655.170654,457.656342 655.220764,460.024323 
	C655.315979,464.515533 655.245911,469.010284 655.244507,474.502197 
z"/>
<path fill="#C1AA80" opacity="1.000000" stroke="none" 
	d="
M590.013733,422.002441 
	C590.675049,413.911285 590.280029,406.040588 592.196106,398.779724 
	C597.892212,377.194336 619.487915,362.265961 640.949829,364.376953 
	C640.949829,390.068359 640.949829,415.794952 640.949829,441.843140 
	C624.147461,441.843140 607.422302,441.843140 590.013733,441.843140 
	C590.013733,435.365295 590.013733,428.933472 590.013733,422.002441 
M602.064941,390.706726 
	C593.261475,404.923279 596.718323,420.564056 596.113403,435.679688 
	C609.547302,435.679688 622.265930,435.679688 634.796021,435.679688 
	C634.796021,413.702667 634.796021,392.163513 634.796021,370.280670 
	C620.522278,371.857086 609.976929,378.499329 602.064941,390.706726 
z"/>
<path fill="#C3AC82" opacity="1.000000" stroke="none" 
	d="
M697.856812,442.154297 
	C682.091431,442.155182 666.810730,442.155182 651.206421,442.155182 
	C651.206421,416.022980 651.206421,390.323883 651.206421,364.076569 
	C669.107117,363.748688 683.270508,370.515686 693.573120,384.971863 
	C699.216553,392.890442 702.044250,401.872162 702.064819,411.657166 
	C702.083740,420.646545 701.961609,429.638062 702.134216,438.624176 
	C702.191345,441.598328 701.027954,442.503113 697.856812,442.154297 
M656.913513,411.499969 
	C656.913513,419.594452 656.913513,427.688934 656.913513,435.719910 
	C670.350342,435.719910 683.064331,435.719910 695.930969,435.719910 
	C695.930969,426.339203 696.402954,417.329956 695.835022,408.386780 
	C694.559021,388.291962 676.649841,370.957764 656.913513,370.591461 
	C656.913513,383.896759 656.913513,397.198334 656.913513,411.499969 
z"/>
<path fill="#152330" opacity="1.000000" stroke="none" 
	d="
M610.012085,531.788086 
	C605.225281,531.788086 600.935608,531.788086 596.357178,531.788086 
	C596.357178,506.538818 596.357178,481.820740 596.357178,456.709045 
	C609.183594,456.709045 621.879089,456.709045 634.904175,456.709045 
	C634.904175,481.597626 634.904175,506.331024 634.904175,531.788086 
	C626.711121,531.788086 618.610168,531.788086 610.012085,531.788086 
z"/>
<path fill="#192631" opacity="1.000000" stroke="none" 
	d="
M655.244507,474.002869 
	C655.245911,469.010284 655.315979,464.515533 655.220764,460.024323 
	C655.170654,457.656342 655.718018,456.272278 658.494202,456.294312 
	C669.476929,456.381500 680.462891,456.240723 691.441040,456.483063 
	C692.509460,456.506653 694.434875,458.579407 694.443481,459.712524 
	C694.617859,482.676666 694.607544,505.642761 694.447266,528.607117 
	C694.439880,529.664978 692.702881,531.608765 691.745056,531.625488 
	C679.810913,531.834045 667.871887,531.762024 655.244507,531.762024 
	C655.244507,512.323425 655.244507,493.412811 655.244507,474.002869 
z"/>
<path fill="#15232F" opacity="1.000000" stroke="none" 
	d="
M602.246826,390.386688 
	C609.976929,378.499329 620.522278,371.857086 634.796021,370.280670 
	C634.796021,392.163513 634.796021,413.702667 634.796021,435.679688 
	C622.265930,435.679688 609.547302,435.679688 596.113403,435.679688 
	C596.718323,420.564056 593.261475,404.923279 602.246826,390.386688 
z"/>
<path fill="#15232F" opacity="1.000000" stroke="none" 
	d="
M656.913513,410.999939 
	C656.913513,397.198334 656.913513,383.896759 656.913513,370.591461 
	C676.649841,370.957764 694.559021,388.291962 695.835022,408.386780 
	C696.402954,417.329956 695.930969,426.339203 695.930969,435.719910 
	C683.064331,435.719910 670.350342,435.719910 656.913513,435.719910 
	C656.913513,427.688934 656.913513,419.594452 656.913513,410.999939 
z"/>
</svg>