<?xml version="1.0" encoding="UTF-8"?>
<svg version="1.1" xmlns="http://www.w3.org/2000/svg" width="1142" height="1110">
<path d="M0 0 C376.86 0 753.72 0 1142 0 C1142 366.3 1142 732.6 1142 1110 C765.14 1110 388.28 1110 0 1110 C0 743.7 0 377.4 0 0 Z " fill="#1B2838" transform="translate(0,0)"/>
<path d="M0 0 C0.66 0 1.32 0 2 0 C3.70172267 2.00669089 5.29551 4.02489907 6.875 6.125 C10.84231514 11.29463222 14.91641911 16.32821738 19.1875 21.25 C23.26300439 25.95599783 27.23392867 30.71856937 31.09765625 35.6015625 C37.55354448 43.74101911 44.22901173 51.70969456 50.83520508 59.72729492 C55.56976372 65.47433947 60.28918786 71.23346913 65 77 C66.49985696 78.83345036 67.9998594 80.66678171 69.5 82.5 C78.5 93.5 87.5 104.5 96.5 115.5 C97.24894531 116.41523438 97.99789062 117.33046875 98.76953125 118.2734375 C100.20499935 120.02817784 101.63993796 121.78335155 103.07421875 123.5390625 C107.70323818 129.2034079 112.34813906 134.85440553 117 140.5 C122.34685204 146.98905001 127.68056318 153.48844833 133 160 C134.49985696 161.83345036 135.9998594 163.66678171 137.5 165.5 C143.5 172.83333333 149.5 180.16666667 155.5 187.5 C156.24894531 188.41523438 156.99789062 189.33046875 157.76953125 190.2734375 C159.20499935 192.02817784 160.63993796 193.78335155 162.07421875 195.5390625 C166.70323818 201.2034079 171.34813906 206.85440553 176 212.5 C181.34685204 218.98905001 186.68056318 225.48844833 192 232 C193.49985696 233.83345036 194.9998594 235.66678171 196.5 237.5 C197.23476563 238.39847656 197.96953125 239.29695312 198.7265625 240.22265625 C200.30300376 242.1485149 201.88125492 244.0728929 203.4609375 245.99609375 C204.25757813 246.96675781 205.05421875 247.93742188 205.875 248.9375 C206.95394531 250.25041016 206.95394531 250.25041016 208.0546875 251.58984375 C208.69664062 252.38519531 209.33859375 253.18054688 210 254 C210.78938903 254.90516092 210.78938903 254.90516092 211.59472531 255.82860792 C213.30541071 258.4719123 213.39302266 260.02131181 213.42970753 263.15242958 C213.44896136 264.19722111 213.4682152 265.24201264 213.48805249 266.31846452 C213.49684424 268.03382736 213.49684424 268.03382736 213.5058136 269.78384399 C213.52334997 270.9950308 213.54088634 272.20621761 213.55895412 273.45410705 C213.6037636 276.80161292 213.63497086 280.14871833 213.65969156 283.49639866 C213.68305762 286.3571223 213.71713168 289.21768039 213.75108824 292.07829488 C213.868785 302.05198126 213.94157098 312.02580909 214 322 C214.0043962 322.74573615 214.0087924 323.4914723 214.01332182 324.25980651 C214.14214542 346.56036359 214.16551202 368.8608972 214.16725707 391.1617732 C214.16776194 396.22903112 214.17007742 401.29628729 214.17275429 406.36354446 C214.1814638 423.20007647 214.18618562 440.03660229 214.18542381 456.87313657 C214.18538386 457.76626615 214.1853439 458.65939573 214.18530273 459.57958984 C214.18526185 460.47384645 214.18522097 461.36810306 214.18517885 462.28945835 C214.18476828 476.9317937 214.19446517 491.57410387 214.2084411 506.2164319 C214.22280301 521.38553457 214.22971236 536.55462486 214.22884732 551.7237345 C214.22851678 560.1884168 214.23120528 568.65307218 214.24202538 577.11774826 C214.25112462 584.27811277 214.25330788 591.43843792 214.24651595 598.59880571 C214.24325672 602.24194637 214.24317425 605.88501142 214.2518692 609.52814484 C214.26120517 613.47992887 214.25494854 617.4316029 214.24723816 621.38339233 C214.25238172 622.52458413 214.25752529 623.66577592 214.26282471 624.84154928 C214.19087607 641.53896277 214.19087607 641.53896277 209.875 647.4375 C202.67327329 653.85643033 194.34590917 653.51891732 185.15893555 653.67480469 C183.78550899 653.70726775 182.41210195 653.74056566 181.03871441 653.77463913 C165.95227724 654.12443442 150.86018505 654.18190529 135.77031922 654.20018864 C133.41604223 654.20317703 131.06176949 654.2072895 128.70749474 654.21169281 C121.2912057 654.2252254 113.87492704 654.23497275 106.45862657 654.2388947 C97.98222242 654.24340806 89.50597688 654.2611657 81.02962095 654.2898953 C74.40210841 654.31156289 67.77464054 654.32160089 61.147093 654.32293582 C57.21794602 654.32397574 53.28895114 654.32971401 49.3598423 654.34775543 C45.68141717 654.36433632 42.00325752 654.36634375 38.32480812 654.35761642 C36.35452955 654.35649201 34.38425929 654.3701112 32.41403198 654.3843689 C23.62538302 654.34358664 14.79958212 653.69976494 7 649.3125 C2.67038001 644.30637688 -0.12550611 638.19856984 -0.1241985 631.5493539 C-0.12644579 630.63095868 -0.12869308 629.71256346 -0.13100848 628.76633808 C-0.12838146 627.75385542 -0.12575445 626.74137276 -0.12304783 625.69820881 C-0.12420167 624.62094161 -0.12535552 623.54367442 -0.12654433 622.43376276 C-0.1292126 618.78723233 -0.12468707 615.14074515 -0.12025452 611.49421692 C-0.12069018 608.86825462 -0.12156498 606.24229235 -0.12284368 603.61633033 C-0.12492087 597.88809021 -0.12326778 592.15986046 -0.11920547 586.43162155 C-0.11318167 577.91387977 -0.11286863 569.39614455 -0.11374746 560.87840102 C-0.11506283 546.55166633 -0.1117144 532.22493625 -0.10573006 517.8982029 C-0.0998179 503.70800567 -0.0959651 489.51781037 -0.09487724 475.32761192 C-0.0948085 474.44610159 -0.09473976 473.56459126 -0.09466894 472.65636849 C-0.09433062 468.1798268 -0.09402923 463.70328511 -0.09374207 459.22674342 C-0.09164031 427.49954965 -0.0848992 395.77235838 -0.07543945 364.04516602 C-0.06625865 333.21801771 -0.05917326 302.3908701 -0.05493164 271.5637207 C-0.05480011 270.61389572 -0.05466859 269.66407074 -0.05453308 268.68546318 C-0.05321458 259.1471397 -0.05193877 249.6088162 -0.05069422 240.07049271 C-0.04815784 220.63892931 -0.04533659 201.20736595 -0.04234314 181.77580261 C-0.04220585 180.88232353 -0.04206856 179.98884444 -0.04192711 179.06829023 C-0.03272271 119.37885911 -0.01687707 59.68942939 0 0 Z " fill="#1C2838" transform="translate(700,175)"/>
<path d="M0 0 C0.99 0 1.98 0 3 0 C4.73520783 1.93790468 6.27036478 3.85305095 7.8125 5.9375 C8.79612701 7.22942801 9.78190403 8.51972116 10.76953125 9.80859375 C11.29240723 10.4929248 11.8152832 11.17725586 12.35400391 11.88232422 C15.15608783 15.48737849 18.08117474 18.98933737 21 22.5 C25.8116827 28.30713556 30.53296941 34.17225506 35.17236328 40.11767578 C38.57515461 44.47440345 42.05120943 48.76517612 45.5625 53.03515625 C52.60553329 61.6019227 59.61779655 70.19147631 66.4375 78.9375 C71.12083548 84.94281414 75.95081116 90.81849659 80.80834961 96.68334961 C84.86349805 101.59022894 88.89414958 106.5166656 92.7080893 111.61489661 C95.12431352 114.8003636 97.60566993 117.63888852 100.53971189 120.35891992 C110.21684894 129.77037466 112.53122037 137.93314698 112.81099468 151.27154671 C112.81969901 154.68719397 112.78660896 158.09714216 112.73033078 161.51199911 C112.68446828 165.25208415 112.72090498 168.9915815 112.74641317 172.73173696 C112.77989838 179.27259892 112.76188302 185.81170596 112.7092514 192.3524189 C112.63121018 202.07798407 112.63405444 211.80237899 112.6528382 221.52817951 C112.68211698 237.89304359 112.64605502 254.25715038 112.57191658 270.62184715 C112.49865515 286.82127204 112.4532173 303.02037104 112.44509697 319.21996498 C112.44456999 320.22857246 112.44404301 321.23717994 112.44350006 322.27635128 C112.44094677 327.39902693 112.43885544 332.52170266 112.43692081 337.64437858 C112.42219075 373.90155831 112.34034572 410.15831074 112.22094727 446.4152832 C112.10509354 481.61646545 112.02719589 516.81743747 111.99536133 552.01879883 C111.99436915 553.10403126 111.99337698 554.1892637 111.99235473 555.30738196 C111.98438645 564.03796248 111.97653879 572.76854312 111.96891884 581.49912395 C111.93593957 619.14783511 111.87158363 656.79649713 111.80163889 694.44515537 C111.78855275 701.54515704 111.77666339 708.64516013 111.76522374 715.74516463 C111.73045924 737.05299972 111.68641375 758.36075062 111.61368889 779.66849389 C111.58378123 788.48129167 111.55823526 797.29404019 111.54603195 806.1068821 C111.53588818 813.40997464 111.51582859 820.71294903 111.48203377 828.0159722 C111.46528445 831.69474149 111.45323777 835.37336184 111.45415247 839.0521728 C111.45498869 843.00962563 111.43282872 846.96675503 111.40824986 850.92413616 C111.41212903 852.0730825 111.41600821 853.22202884 111.42000493 854.40579173 C111.36525977 859.99259627 111.26214962 864.23323348 108 869 C102.80753328 873.9667073 98.58807737 876.25128987 91.40437317 876.24723816 C90.28862915 876.25143265 89.17288513 876.25562714 88.02333069 876.25994873 C86.8075383 876.25432922 85.59174591 876.24870972 84.33911133 876.24291992 C83.05009918 876.24481827 81.76108704 876.24671661 80.43301392 876.24867249 C76.89129962 876.25352264 73.34971135 876.24584882 69.80801225 876.23571944 C66.05736854 876.22687234 62.30672807 876.22869813 58.55607605 876.2290802 C52.21827125 876.2281421 45.88051412 876.21946333 39.54272461 876.20581055 C33.12214203 876.19202557 26.70160344 876.18479398 20.28100586 876.18530273 C1.47966218 876.18636307 -17.32087827 876.14957994 -36.12189925 876.03429663 C-40.44765009 876.00793854 -44.77338167 875.98867768 -49.09918213 875.97271729 C-54.17274789 875.95140981 -59.24534328 875.90515423 -64.31844521 875.83358192 C-66.06609323 875.81211093 -67.81386203 875.79862426 -69.56163597 875.79405785 C-79.51933128 875.76016572 -86.68351166 875.32675183 -94.0234375 867.97265625 C-94.46945312 867.34230469 -94.91546875 866.71195313 -95.375 866.0625 C-95.83648437 865.43472656 -96.29796875 864.80695312 -96.7734375 864.16015625 C-99.50661408 859.34663189 -100.26523518 854.77355192 -100.40815735 849.29470825 C-100.43658433 848.30102647 -100.43658433 848.30102647 -100.46558559 847.28727031 C-100.52590877 845.03294724 -100.57090566 842.77863131 -100.61450195 840.52392578 C-100.64212771 839.30737442 -100.64212771 839.30737442 -100.67031157 838.06624627 C-101.24129347 812.83526946 -101.16389059 787.59311901 -101.16665595 762.35705375 C-101.16731013 757.01518735 -101.17022625 751.67332572 -101.17439079 746.33146095 C-101.22984378 674.25359337 -101.15834629 602.1756488 -101.05381283 530.09785793 C-101.02208357 508.18228603 -100.99516373 486.26672519 -100.97967529 464.35113525 C-100.94546564 416.84554514 -100.88150261 369.34031611 -100.73099804 321.83493423 C-100.71781245 317.63354783 -100.7047592 313.43216104 -100.69180298 309.23077393 C-100.68859008 308.19502331 -100.68537718 307.1592727 -100.68206692 306.0921357 C-100.63113235 289.39970959 -100.61385938 272.70741297 -100.60876305 256.01491714 C-100.60279217 239.19162604 -100.55974593 222.36874455 -100.4792518 205.54564232 C-100.43224534 195.49970105 -100.41299143 185.45459066 -100.43292018 175.40855457 C-100.44350363 168.6745017 -100.4177647 161.94121555 -100.36265538 155.20738165 C-100.33222564 151.36374652 -100.3175093 147.52183343 -100.34680879 143.67814994 C-100.3780416 139.52996218 -100.33193395 135.38616459 -100.2784729 131.23820496 C-100.29981936 130.04659376 -100.32116582 128.85498256 -100.34315914 127.62726194 C-100.1078168 117.85978433 -95.84095323 113.54771011 -89 107 C-87.51583484 105.25076 -86.05345495 103.4825218 -84.625 101.6875 C-81.15629531 97.39145408 -77.60569489 93.18068001 -74 89 C-69.68043221 83.9870511 -65.44902075 78.91461687 -61.27734375 73.77734375 C-58.25580056 70.09240857 -55.16964049 66.46431679 -52.08349609 62.83349609 C-49.20442157 59.44026525 -46.36788508 56.0172328 -43.5625 52.5625 C-39.60556582 47.69950576 -35.53564058 42.94299797 -31.44384766 38.19384766 C-27.65074786 33.78245206 -23.95123393 29.30288174 -20.28515625 24.78515625 C-17.22595517 21.05659151 -14.09733617 17.38880844 -10.96264648 13.72363281 C-7.60728183 9.77978516 -4.45906397 5.71924658 -1.4375 1.51171875 C-0.963125 1.01285156 -0.48875 0.51398437 0 0 Z M1 6 C-0.87009181 8.07956638 -2.69373752 10.17842618 -4.5 12.3125 C-5.04462891 12.951875 -5.58925781 13.59125 -6.15039062 14.25 C-10.04612508 18.83698698 -13.86338754 23.4838832 -17.65625 28.15625 C-20.39302138 31.47686594 -23.19106385 34.74043709 -26 38 C-30.31934272 43.01314773 -34.55097277 48.08537515 -38.72265625 53.22265625 C-41.74419944 56.90759143 -44.83035951 60.53568321 -47.91650391 64.16650391 C-50.79557843 67.55973475 -53.63211492 70.9827672 -56.4375 74.4375 C-60.39443418 79.30049424 -64.46435942 84.05700203 -68.55615234 88.80615234 C-72.34091532 93.20785217 -76.03478641 97.67532439 -79.6875 102.1875 C-81.43632465 104.31444889 -83.20388293 106.41360138 -85 108.5 C-85.50845459 109.09224365 -86.01690918 109.6844873 -86.54077148 110.29467773 C-87.53873253 111.45402891 -88.54072213 112.60992711 -89.54711914 113.76196289 C-92.17639511 116.48982956 -92.17639511 116.48982956 -93 120 C-93.66 120 -94.32 120 -95 120 C-95.59905525 191.03706639 -96.12039152 262.07484563 -96.52734375 333.11328125 C-96.53280627 334.06545892 -96.5382688 335.01763659 -96.54389685 335.99866813 C-97.08592677 430.75991245 -97.1555435 525.52016327 -97.12946139 620.28272709 C-97.12488917 637.23601305 -97.12585971 654.18929224 -97.13037109 671.14257812 C-97.13573057 691.28991918 -97.13783412 711.43725628 -97.13475883 731.58459795 C-97.13444049 733.72584621 -97.13412611 735.86709448 -97.13381577 738.00834274 C-97.13366149 739.05981326 -97.13350721 740.11128378 -97.13334826 741.19461704 C-97.13249511 748.49959459 -97.13391732 755.80456952 -97.13629532 763.10954666 C-97.1391042 771.9201919 -97.13832755 780.73082823 -97.13301457 789.54147245 C-97.13040893 794.00498827 -97.12932011 798.46848925 -97.13266373 802.93200493 C-97.17816674 824.63524127 -97.17816674 824.63524127 -96.67941284 846.33065796 C-96.65743493 847.13536329 -96.63545702 847.94006862 -96.61281312 848.76915896 C-96.23980725 856.6405027 -93.42463096 862.31705328 -88 868 C-83.81024654 871.16470316 -79.98708197 871.53394708 -74.89306641 871.67700195 C-73.60822074 871.72652622 -73.60822074 871.72652622 -72.29741859 871.77705097 C-58.27538297 872.24420121 -44.2327026 872.16500203 -30.20435667 872.16725707 C-27.68817271 872.16797525 -25.17199396 872.17012351 -22.65581131 872.17275429 C-13.8520804 872.18194607 -5.04836446 872.18609586 3.75537109 872.18530273 C11.92626434 872.18469946 20.09709212 872.19531576 28.26796877 872.2110464 C35.32579786 872.2241443 42.38360553 872.22948588 49.44144666 872.22884732 C53.6389323 872.22859356 57.83635918 872.2313791 62.03383255 872.24202538 C65.97224801 872.25174778 69.91054886 872.25175737 73.84896851 872.24450874 C75.286413 872.24346895 76.72386483 872.24578949 78.16129684 872.2518692 C91.05691644 872.95810573 91.05691644 872.95810573 102.67620277 868.61423016 C106.00214087 864.74144626 107.12415153 862.08652225 107.13685584 857.11142844 C107.14192161 856.06960389 107.14698738 855.02777934 107.15220666 853.95438436 C107.15272397 852.79859961 107.15324128 851.64281487 107.15377426 850.45200634 C107.15822367 849.22783411 107.16267307 848.00366188 107.16725731 846.74239352 C107.17864333 843.3183254 107.18550484 839.89430094 107.19048117 836.47022093 C107.19693205 832.75480511 107.20903749 829.03940702 107.22038293 825.32400352 C107.24196444 817.94299012 107.25797562 810.56197388 107.27223127 803.1809431 C107.28423164 797.04200641 107.2985458 790.9030787 107.31433487 784.76415062 C107.31660618 783.87956172 107.31887748 782.99497283 107.32121762 782.0835782 C107.32350416 781.19335668 107.32579071 780.30313517 107.32814655 779.38593724 C107.49731387 713.51913839 107.58164882 647.65206329 107.64874355 581.78509052 C107.65875535 571.98424948 107.66915037 562.18340885 107.6796875 552.38256836 C107.6814207 550.75808313 107.6814207 550.75808313 107.6831889 549.10078001 C107.72091468 513.99258857 107.7969262 478.88461296 107.8938025 443.77653877 C107.99318715 407.69379996 108.0567465 371.61117819 108.0741569 335.52830197 C108.07662628 330.43208913 108.07949078 325.33587658 108.0825882 320.23966408 C108.08348092 318.73516745 108.08348092 318.73516745 108.08439169 317.20027696 C108.09499604 301.05532402 108.14312444 284.91069079 108.20511358 268.76586251 C108.26658555 252.53623872 108.28780105 236.30695468 108.26802835 220.07722308 C108.25748665 210.43471058 108.27757023 200.7933988 108.34163618 191.15108725 C108.38141972 184.70719471 108.38111423 178.26410206 108.34847412 171.82017165 C108.33101925 168.14972072 108.33072779 164.48154726 108.37939379 160.8113267 C109.23540027 143.10963352 109.23540027 143.10963352 101.60367203 127.91392231 C99.80088192 126.1670704 97.94153368 124.60002972 96 123 C94.96352783 121.7886229 93.95780856 120.54883314 93.01171875 119.265625 C88.1175996 112.91560822 83.11517374 106.67343772 78 100.5 C73.1893799 94.69196057 68.46705568 88.82777709 63.82763672 82.88232422 C60.42484539 78.52559655 56.94879057 74.23482388 53.4375 69.96484375 C46.39446671 61.3980773 39.38220345 52.80852369 32.5625 44.0625 C27.88883219 38.06958245 23.07159355 32.20360869 18.22021484 26.35400391 C13.80645145 21.01861836 9.50361232 15.60590851 5.28710938 10.11328125 C4.21310026 8.72512858 3.10976776 7.35973487 2 6 C1.67 6 1.34 6 1 6 Z " fill="#C3AE80" transform="translate(572,19)"/>
<path d="M0 0 C46.2 0 92.4 0 140 0 C140.33 24.75 140.66 49.5 141 75 C151.01810859 63.46917392 151.01810859 63.46917392 160.7578125 51.7421875 C163.30253595 48.62999959 165.89614381 45.56270126 168.5 42.5 C171.85452096 38.55353876 175.17221962 34.58357765 178.4375 30.5625 C182.44729411 25.62958782 186.58721845 20.81912649 190.74511719 16.01147461 C193.5117569 12.79465001 196.1701224 9.54403448 198.6875 6.125 C199.8321875 4.578125 199.8321875 4.578125 201 3 C201.33 3 201.66 3 202 3 C202.05135091 58.35904804 202.09911331 113.71809833 202.12702942 169.0771637 C202.12744359 169.89638843 202.12785776 170.71561317 202.12828448 171.5596629 C202.13726304 189.36327275 202.14557361 207.16688286 202.15319599 224.97049334 C202.15693802 233.70127622 202.16082768 242.43205902 202.16479492 251.1628418 C202.1651872 252.03166341 202.16557948 252.90048503 202.16598364 253.79563457 C202.17876954 281.9607893 202.20130487 310.12592599 202.22889166 338.29106979 C202.25718728 367.23243716 202.27565583 396.17379454 202.28174497 425.11517552 C202.28260945 429.20217598 202.28358636 433.28917641 202.28463173 437.37617683 C202.28493513 438.58275699 202.28493513 438.58275699 202.28524467 439.81371251 C202.28879094 452.76638474 202.30270816 465.71902609 202.3204961 478.67168573 C202.33815439 491.69089887 202.3449048 504.71008139 202.34050413 517.72930609 C202.338221 525.46593479 202.34431806 533.20245145 202.36239263 540.93905993 C202.3749639 546.71422031 202.37188544 552.48928747 202.36269668 558.26445032 C202.36142652 560.60241768 202.36525474 562.94039442 202.37464955 565.27834325 C202.38666851 568.45350165 202.38021165 571.62811005 202.36914349 574.80325985 C202.37702453 575.71334577 202.38490557 576.6234317 202.39302543 577.56109598 C202.33656065 584.71751445 201.23775209 591.14065011 196.75 596.875 C191.29187006 601.09264586 186.60078355 602.37331968 179.77165222 602.40113831 C179.078523 602.40793498 178.38539379 602.41473164 177.67126065 602.42173427 C175.36686616 602.4406058 173.06300774 602.43827609 170.75854492 602.43579102 C169.09887515 602.44477487 167.43921163 602.45498456 165.77955627 602.46632385 C161.28354125 602.49276454 156.78769765 602.49985481 152.29161239 602.50177121 C149.47915804 602.50390725 146.66674694 602.51031875 143.85430336 602.51826286 C134.03264231 602.54599691 124.21110321 602.55827084 114.3894043 602.5559082 C105.25008417 602.5541065 96.11129562 602.58575529 86.97210997 602.63313919 C79.11197968 602.67243189 71.25202268 602.68845713 63.39179498 602.68654197 C58.70322321 602.68577894 54.01512411 602.69422524 49.32665062 602.72607613 C44.91456079 602.75523267 40.50339183 602.75528168 36.09126854 602.73352623 C34.47805427 602.73040256 32.86478151 602.73739518 31.25166702 602.7556076 C21.00676618 602.86372396 13.10772492 601.93091138 5.40114117 594.4474268 C-1.86078652 585.57819397 -1.43098975 573.37389122 -1.36749268 562.55535889 C-1.36952078 561.00828977 -1.37286455 559.46122191 -1.37739825 557.91415811 C-1.38600885 553.6819541 -1.3760122 549.44997125 -1.36285591 545.21778655 C-1.35190896 540.63517191 -1.35838198 536.0525766 -1.36264038 531.46995544 C-1.36828334 522.45374221 -1.35791362 513.43761403 -1.34235242 504.42141524 C-1.32460603 493.74741305 -1.32338784 483.07342633 -1.32273683 472.39941171 C-1.321044 453.13393252 -1.30523199 433.86849061 -1.28125 414.60302734 C-1.25851983 396.32795909 -1.24394594 378.0529143 -1.24023438 359.77783203 C-1.24000155 358.67436575 -1.23976872 357.57089948 -1.23952883 356.43399483 C-1.23859593 351.98507918 -1.23767547 347.53616353 -1.2367762 343.08724788 C-1.21598296 245.87310912 -0.95536213 148.66239516 -0.34307861 51.45013428 C-0.33787802 50.62422028 -0.33267742 49.79830629 -0.32731923 48.9473646 C-0.2241567 32.63153487 -0.11109012 16.31577964 0 0 Z M4 5 C3.5916109 42.77632758 3.5916109 42.77632758 3.23373413 80.5531311 C3.22309643 81.78799891 3.21245873 83.02286672 3.20149867 84.29515477 C2.83503323 127.57643573 2.83509044 170.85862197 2.83274293 214.14116645 C2.8322365 221.58632255 2.82991698 229.03147747 2.82724571 236.47663307 C2.81854939 261.22964829 2.81381271 285.98265931 2.81457619 310.73567607 C2.81461614 312.04582045 2.8146561 313.35596483 2.81469727 314.70581055 C2.81473815 316.01761552 2.81477903 317.3294205 2.81482115 318.68097714 C2.81520647 338.83997865 2.80728747 358.99896237 2.79418945 379.15795898 C2.77881964 402.82016289 2.77023508 426.4823588 2.77115268 450.14456874 C2.77148303 462.58433415 2.76880233 475.02408123 2.75797462 487.46384239 C2.74887654 497.97723052 2.74669153 508.49059185 2.75348405 519.00398221 C2.7567426 524.35127465 2.75682788 529.69851557 2.7481308 535.04580307 C2.74024448 539.94416026 2.74171848 544.84242521 2.75041493 549.74078021 C2.75194428 551.50368173 2.75015526 553.26659023 2.74455485 555.02948352 C1.91989819 575.95650347 1.91989819 575.95650347 10.78084183 593.87281704 C18.02882482 599.31307844 25.80209133 598.82662629 34.45605469 598.72875977 C36.11427992 598.73198282 37.77250181 598.73780569 39.43070984 598.74601746 C43.91211216 598.76049521 48.39261112 598.73768577 52.87390423 598.70715833 C57.57073039 598.68071603 62.26753107 598.68609102 66.9644165 598.6872406 C74.84605951 598.68443595 82.7273548 598.65845085 90.60888672 598.61743164 C99.71867688 598.57019499 108.82808712 598.55443987 117.9379909 598.5566383 C127.64671011 598.55866471 137.35528309 598.53784853 147.06395817 598.51029849 C149.85875314 598.50390767 152.6535245 598.50177543 155.44832611 598.50058174 C159.83811138 598.49756738 164.227578 598.4792451 168.61725807 598.44908333 C170.22770295 598.44032547 171.83818451 598.43662878 173.44865227 598.43836594 C175.64723828 598.43984004 177.84493415 598.42285531 180.043396 598.40113831 C181.27336178 598.39611077 182.50332756 598.39108324 183.77056503 598.38590336 C187.30796533 597.96319949 189.12210975 597.04394487 192 595 C192.99 594.34 193.98 593.68 195 593 C198.1168769 586.96519929 198.42811714 580.66037 198.36914349 574.00628567 C198.37260502 573.03521644 198.37606655 572.06414722 198.37963298 571.06365165 C198.38756468 567.81436733 198.37412237 564.56553025 198.36076355 561.31626892 C198.36207203 558.96148896 198.36469922 556.60670942 198.36853105 554.2519322 C198.37453665 548.46238996 198.36660745 542.6729839 198.35280902 536.88345774 C198.33707244 529.94687254 198.33884422 523.0103198 198.34124239 516.0737211 C198.34518074 503.27311051 198.3351726 490.47254644 198.31719017 477.67194939 C198.2994334 464.99947822 198.28789118 452.32702644 198.28463173 439.65454292 C198.28442551 438.86633026 198.28421929 438.0781176 198.28400682 437.26601971 C198.28299181 433.2630148 198.28208766 429.26000987 198.2812262 425.25700492 C198.27492654 396.91066263 198.25471886 368.56434563 198.22631836 340.21801758 C198.19876114 312.68156061 198.17751222 285.14511057 198.16479492 257.60864258 C198.16440034 256.7597085 198.16400576 255.91077442 198.16359923 255.03611507 C198.15964364 246.51069714 198.1558162 237.98527916 198.15208265 229.45986113 C198.1444742 212.09291507 198.13601045 194.72596945 198.12702942 177.35902405 C198.12661755 176.56053646 198.12620568 175.76204887 198.12578133 174.93936469 C198.09818371 121.62623249 198.05058619 68.31311475 198 15 C197.0411792 15.78826172 196.0823584 16.57652344 195.09448242 17.38867188 C194.55514572 17.83206909 194.01580902 18.27546631 193.46012878 18.7322998 C191.79354953 20.17924261 190.55762164 21.67988864 189.3125 23.5 C186.60977392 27.25693076 183.6918903 30.79555372 180.6875 34.3125 C177.26788415 38.3198983 173.88167187 42.34586631 170.5625 46.4375 C167.10725543 50.68392758 163.57293424 54.85288424 160 59 C154.89974782 64.92194164 149.92625099 70.93142994 145 77 C142.03 80.63 139.06 84.26 136 88 C135.67 60.61 135.34 33.22 135 5 C91.77 5 48.54 5 4 5 Z " fill="#BCA87D" transform="translate(256,158)"/>
<path d="M0 0 C0.33 0 0.66 0 1 0 C1 218.46 1 436.92 1 662 C-127 662 -127 662 -137 657 C-143.0246358 650.3298675 -145.25215374 644.35669344 -145.24609566 635.26653385 C-145.24840335 634.62362844 -145.25071103 633.98072302 -145.25308865 633.31833562 C-145.25836418 631.17338568 -145.24942523 629.02873865 -145.24050903 626.88380432 C-145.2413816 625.32683728 -145.24313353 623.76987053 -145.24568737 622.21290535 C-145.2501548 617.9416913 -145.24216551 613.67057775 -145.23213124 609.39937651 C-145.22349035 604.79073126 -145.22641736 600.18209163 -145.22793579 595.57344055 C-145.22898424 587.59102093 -145.22271184 579.60863401 -145.21146011 571.62622261 C-145.19520262 560.08501494 -145.18999685 548.54382307 -145.18748413 537.00260519 C-145.18310742 518.27752536 -145.16979896 499.55246295 -145.15087891 480.82739258 C-145.13251949 462.63826586 -145.11836328 444.44914388 -145.10986328 426.26000977 C-145.10933783 425.13873849 -145.10881239 424.01746722 -145.10827102 422.86221803 C-145.10566093 417.23710171 -145.10313352 411.61198535 -145.10064721 405.98686898 C-145.07991546 359.32456384 -145.04304609 312.66229094 -145 266 C-169.42 266 -193.84 266 -219 266 C-216.53910081 261.89850135 -213.97845828 258.45210436 -210.875 254.875 C-209.88469363 253.71936921 -208.89512087 252.56310939 -207.90625 251.40625 C-207.16955078 250.54580078 -207.16955078 250.54580078 -206.41796875 249.66796875 C-202.87675977 245.50241439 -199.44843424 241.24231839 -196 237 C-190.73978271 230.52879744 -185.41843127 224.11861568 -180.01611328 217.76611328 C-176.62778426 213.77056534 -173.3469433 209.7002399 -170.09375 205.59375 C-167.14916916 201.94598567 -164.10548467 198.3854602 -161.06640625 194.81640625 C-158.32225467 191.58575688 -155.63252191 188.32301946 -153 185 C-149.45144854 180.52068094 -145.77063124 176.16659964 -142.06640625 171.81640625 C-139.32225467 168.58575688 -136.63252191 165.32301946 -134 162 C-130.45144854 157.52068094 -126.77063124 153.16659964 -123.06640625 148.81640625 C-120.32225467 145.58575688 -117.63252191 142.32301946 -115 139 C-111.45144854 134.52068094 -107.77063124 130.16659964 -104.06640625 125.81640625 C-101.32225467 122.58575688 -98.63252191 119.32301946 -96 116 C-92.45144854 111.52068094 -88.77063124 107.16659964 -85.06640625 102.81640625 C-82.32225467 99.58575688 -79.63252191 96.32301946 -77 93 C-73.45144854 88.52068094 -69.77063124 84.16659964 -66.06640625 79.81640625 C-63.32225467 76.58575688 -60.63252191 73.32301946 -58 70 C-54.45144854 65.52068094 -50.77063124 61.16659964 -47.06640625 56.81640625 C-44.32225467 53.58575688 -41.63252191 50.32301946 -39 47 C-35.45144854 42.52068094 -31.77063124 38.16659964 -28.06640625 33.81640625 C-25.32225467 30.58575688 -22.63252191 27.32301946 -20 24 C-15.56742618 18.40673159 -10.94420443 12.9798138 -6.31103516 7.55273438 C-5.39518978 6.468046 -4.48936706 5.37485077 -3.59130859 4.27539062 C-2.41390248 2.83394475 -1.20933075 1.41476872 0 0 Z M-4 11 C-5.32337812 12.53573415 -6.60692642 14.10579256 -7.875 15.6875 C-11.38399452 20.02771898 -14.94238781 24.31469183 -18.5625 28.5625 C-22.43164041 33.11110246 -26.19779635 37.72508719 -29.90625 42.40625 C-32.85083084 46.05401433 -35.89451533 49.6145398 -38.93359375 53.18359375 C-41.67774533 56.41424312 -44.36747809 59.67698054 -47 63 C-50.54855146 67.47931906 -54.22936876 71.83340036 -57.93359375 76.18359375 C-60.67774533 79.41424312 -63.36747809 82.67698054 -66 86 C-69.54855146 90.47931906 -73.22936876 94.83340036 -76.93359375 99.18359375 C-80.3448699 103.19963908 -83.6465201 107.29092151 -86.91796875 111.421875 C-89.33084092 114.40967168 -91.81796079 117.33056197 -94.3125 120.25 C-98.11744166 124.7063918 -101.78798412 129.24171687 -105.375 133.875 C-109.84984563 139.64753471 -114.55823743 145.17759172 -119.37011719 150.67089844 C-123.02581559 154.85102459 -126.54073983 159.11292274 -129.9765625 163.4765625 C-132.42801178 166.53377531 -134.95896224 169.51719269 -137.5 172.5 C-140.726434 176.28889032 -143.90927392 180.09859167 -147 184 C-150.54855146 188.47931906 -154.22936876 192.83340036 -157.93359375 197.18359375 C-160.67774533 200.41424312 -163.36747809 203.67698054 -166 207 C-169.54855146 211.47931906 -173.22936876 215.83340036 -176.93359375 220.18359375 C-179.67774533 223.41424312 -182.36747809 226.67698054 -185 230 C-188.09074769 233.90143561 -191.2740747 237.71065196 -194.5 241.5 C-203.09961418 251.16940788 -203.09961418 251.16940788 -210 262 C-187.23 262 -164.46 262 -141 262 C-141.00444122 266.73259659 -141.00888245 271.46519318 -141.01345825 276.34120178 C-141.05324284 319.72400487 -141.08310742 363.1068058 -141.10213066 406.48962313 C-141.10463212 412.17366481 -141.10722076 417.85770644 -141.10986328 423.54174805 C-141.11065021 425.23915829 -141.11065021 425.23915829 -141.11145304 426.97085964 C-141.12015945 445.3019731 -141.13593073 463.63307403 -141.15430559 481.96418006 C-141.17299807 500.76874943 -141.18411534 519.57331224 -141.18817699 538.37789053 C-141.1909234 549.98452805 -141.19960277 561.59113019 -141.21583293 573.19775682 C-141.22639175 581.15312224 -141.22960312 589.10846931 -141.22700275 597.06384123 C-141.22571975 601.65601196 -141.22770875 606.24812077 -141.23841095 610.84028053 C-141.24813696 615.04422382 -141.24863911 619.24806348 -141.24179779 623.45201152 C-141.24095212 624.97298946 -141.24349469 626.49397384 -141.24976636 628.01493908 C-141.25779946 630.08331299 -141.25346196 632.15131344 -141.24609566 634.21968174 C-141.2468551 635.36833574 -141.24761454 636.51698974 -141.24839699 637.70045143 C-140.73701804 644.49328603 -139.00490532 649.30790126 -134 654 C-93.43762195 670.22495122 -46.68701816 658 -3 658 C-3 444.49 -3 230.98 -3 11 C-3.33 11 -3.66 11 -4 11 Z " fill="#BDAA7E" transform="translate(242,429)"/>
<path d="M0 0 C0.66 0 1.32 0 2 0 C3.70172267 2.00669089 5.29551 4.02489907 6.875 6.125 C10.84231514 11.29463222 14.91641911 16.32821738 19.1875 21.25 C23.26300439 25.95599783 27.23392867 30.71856937 31.09765625 35.6015625 C37.55354448 43.74101911 44.22901173 51.70969456 50.83520508 59.72729492 C55.56976372 65.47433947 60.28918786 71.23346913 65 77 C66.49985696 78.83345036 67.9998594 80.66678171 69.5 82.5 C78.5 93.5 87.5 104.5 96.5 115.5 C97.24894531 116.41523438 97.99789062 117.33046875 98.76953125 118.2734375 C100.20499935 120.02817784 101.63993796 121.78335155 103.07421875 123.5390625 C107.70323818 129.2034079 112.34813906 134.85440553 117 140.5 C122.34685204 146.98905001 127.68056318 153.48844833 133 160 C134.49985696 161.83345036 135.9998594 163.66678171 137.5 165.5 C143.5 172.83333333 149.5 180.16666667 155.5 187.5 C156.24894531 188.41523438 156.99789062 189.33046875 157.76953125 190.2734375 C159.20499935 192.02817784 160.63993796 193.78335155 162.07421875 195.5390625 C166.70323818 201.2034079 171.34813906 206.85440553 176 212.5 C181.34685204 218.98905001 186.68056318 225.48844833 192 232 C193.49985696 233.83345036 194.9998594 235.66678171 196.5 237.5 C197.23476563 238.39847656 197.96953125 239.29695312 198.7265625 240.22265625 C200.30300376 242.1485149 201.88125492 244.0728929 203.4609375 245.99609375 C204.25757813 246.96675781 205.05421875 247.93742188 205.875 248.9375 C206.95394531 250.25041016 206.95394531 250.25041016 208.0546875 251.58984375 C208.69664062 252.38519531 209.33859375 253.18054688 210 254 C210.78938903 254.90516092 210.78938903 254.90516092 211.59472531 255.82860792 C213.30541071 258.4719123 213.39302266 260.02131181 213.42970753 263.15242958 C213.44896136 264.19722111 213.4682152 265.24201264 213.48805249 266.31846452 C213.49684424 268.03382736 213.49684424 268.03382736 213.5058136 269.78384399 C213.52334997 270.9950308 213.54088634 272.20621761 213.55895412 273.45410705 C213.6037636 276.80161292 213.63497086 280.14871833 213.65969156 283.49639866 C213.68305762 286.3571223 213.71713168 289.21768039 213.75108824 292.07829488 C213.868785 302.05198126 213.94157098 312.02580909 214 322 C214.0043962 322.74573615 214.0087924 323.4914723 214.01332182 324.25980651 C214.14214542 346.56036359 214.16551202 368.8608972 214.16725707 391.1617732 C214.16776194 396.22903112 214.17007742 401.29628729 214.17275429 406.36354446 C214.1814638 423.20007647 214.18618562 440.03660229 214.18542381 456.87313657 C214.18538386 457.76626615 214.1853439 458.65939573 214.18530273 459.57958984 C214.18526185 460.47384645 214.18522097 461.36810306 214.18517885 462.28945835 C214.18476828 476.9317937 214.19446517 491.57410387 214.2084411 506.2164319 C214.22280301 521.38553457 214.22971236 536.55462486 214.22884732 551.7237345 C214.22851678 560.1884168 214.23120528 568.65307218 214.24202538 577.11774826 C214.25112462 584.27811277 214.25330788 591.43843792 214.24651595 598.59880571 C214.24325672 602.24194637 214.24317425 605.88501142 214.2518692 609.52814484 C214.26120517 613.47992887 214.25494854 617.4316029 214.24723816 621.38339233 C214.25238172 622.52458413 214.25752529 623.66577592 214.26282471 624.84154928 C214.19087607 641.53896277 214.19087607 641.53896277 209.875 647.4375 C202.67327329 653.85643033 194.34590917 653.51891732 185.15893555 653.67480469 C183.78550899 653.70726775 182.41210195 653.74056566 181.03871441 653.77463913 C165.95227724 654.12443442 150.86018505 654.18190529 135.77031922 654.20018864 C133.41604223 654.20317703 131.06176949 654.2072895 128.70749474 654.21169281 C121.2912057 654.2252254 113.87492704 654.23497275 106.45862657 654.2388947 C97.98222242 654.24340806 89.50597688 654.2611657 81.02962095 654.2898953 C74.40210841 654.31156289 67.77464054 654.32160089 61.147093 654.32293582 C57.21794602 654.32397574 53.28895114 654.32971401 49.3598423 654.34775543 C45.68141717 654.36433632 42.00325752 654.36634375 38.32480812 654.35761642 C36.35452955 654.35649201 34.38425929 654.3701112 32.41403198 654.3843689 C23.62538302 654.34358664 14.79958212 653.69976494 7 649.3125 C2.67038001 644.30637688 -0.12550611 638.19856984 -0.1241985 631.5493539 C-0.12644579 630.63095868 -0.12869308 629.71256346 -0.13100848 628.76633808 C-0.12838146 627.75385542 -0.12575445 626.74137276 -0.12304783 625.69820881 C-0.12420167 624.62094161 -0.12535552 623.54367442 -0.12654433 622.43376276 C-0.1292126 618.78723233 -0.12468707 615.14074515 -0.12025452 611.49421692 C-0.12069018 608.86825462 -0.12156498 606.24229235 -0.12284368 603.61633033 C-0.12492087 597.88809021 -0.12326778 592.15986046 -0.11920547 586.43162155 C-0.11318167 577.91387977 -0.11286863 569.39614455 -0.11374746 560.87840102 C-0.11506283 546.55166633 -0.1117144 532.22493625 -0.10573006 517.8982029 C-0.0998179 503.70800567 -0.0959651 489.51781037 -0.09487724 475.32761192 C-0.0948085 474.44610159 -0.09473976 473.56459126 -0.09466894 472.65636849 C-0.09433062 468.1798268 -0.09402923 463.70328511 -0.09374207 459.22674342 C-0.09164031 427.49954965 -0.0848992 395.77235838 -0.07543945 364.04516602 C-0.06625865 333.21801771 -0.05917326 302.3908701 -0.05493164 271.5637207 C-0.05480011 270.61389572 -0.05466859 269.66407074 -0.05453308 268.68546318 C-0.05321458 259.1471397 -0.05193877 249.6088162 -0.05069422 240.07049271 C-0.04815784 220.63892931 -0.04533659 201.20736595 -0.04234314 181.77580261 C-0.04220585 180.88232353 -0.04206856 179.98884444 -0.04192711 179.06829023 C-0.03272271 119.37885911 -0.01687707 59.68942939 0 0 Z M4 11 C3.94865596 70.39142756 3.90089268 129.78285742 3.87297058 189.17430115 C3.87255641 190.05301097 3.87214224 190.9317208 3.87171552 191.8370582 C3.86273724 210.93279831 3.85442663 230.02853866 3.84680401 249.12427935 C3.84306193 258.48853329 3.83917228 267.85278717 3.83520508 277.21704102 C3.8348128 278.14890754 3.83442052 279.08077407 3.83401636 280.04087898 C3.8212274 310.2570886 3.7986898 340.47328142 3.77110834 370.68948086 C3.74282131 401.73496002 3.72434616 432.78042988 3.71825503 463.82592171 C3.71739054 468.20871018 3.71641363 472.59149861 3.71536827 476.97428703 C3.715166 477.83690097 3.71496373 478.69951491 3.71475533 479.58826867 C3.71120721 493.48604534 3.69728501 507.38379328 3.6795039 521.28155823 C3.66185788 535.24619144 3.65509212 549.21079611 3.65949587 563.17544008 C3.66178132 571.47681965 3.65566123 579.77809491 3.63760737 588.07945569 C3.62505842 594.27146973 3.62810236 600.46338264 3.63730332 606.65540051 C3.63857583 609.1656055 3.63472742 611.67581917 3.62535045 614.18600697 C3.61337464 617.58865504 3.61976184 620.9907864 3.63085651 624.39342594 C3.62297547 625.3761484 3.61509443 626.35887086 3.60697457 627.37137279 C3.65300243 633.58533619 4.2275195 638.84485943 8.5 643.70703125 C18.14728768 650.81688129 27.561963 650.15386935 39.26147461 650.12939453 C40.84815445 650.13202301 40.84815445 650.13202301 42.46688843 650.13470459 C45.9453906 650.13908088 49.4238411 650.13619127 52.90234375 650.1328125 C55.38139353 650.13348877 57.86044324 650.13446146 60.3394928 650.13571167 C65.55356473 650.13718469 70.76761952 650.13505428 75.98168945 650.13037109 C82.49104422 650.12479461 89.00035712 650.12799797 95.50971031 650.13377762 C120.79708193 650.15320551 146.08603736 650.09295936 171.37112617 649.72799301 C173.68639687 649.6961095 176.00173765 649.6689252 178.31712151 649.64673233 C181.50160785 649.61453239 184.68524479 649.56359152 187.86938477 649.50732422 C188.7985351 649.5013258 189.72768543 649.49532738 190.68499184 649.48914719 C197.21600387 649.34290772 202.32640716 648.67521044 207.14843273 643.85026741 C209.48823879 640.24841451 209.59450749 637.89554379 209.74191284 633.6149292 C209.78480118 632.50785272 209.78480118 632.50785272 209.82855594 631.37841105 C209.91260442 628.91881996 209.96147338 626.46071087 210 624 C210.01400172 623.15582551 210.02800344 622.31165102 210.04242945 621.44189548 C210.13806597 614.68154792 210.13630617 607.92201482 210.12939453 601.16113281 C210.13075342 598.90514091 210.13253607 596.64914923 210.13470459 594.39315796 C210.1392471 588.2790602 210.1374955 582.16497943 210.1343255 576.05088139 C210.13201751 570.18136609 210.13380071 564.31185272 210.1352527 558.44233736 C210.13810338 545.98226891 210.13483863 533.5222078 210.12945233 521.06214055 C210.12508976 510.65795958 210.12571552 500.25379008 210.13037109 489.84960938 C210.16338427 414.08269019 209.82089488 338.32862261 209 259 C208.34 259 207.68 259 207 259 C206.7306665 258.41677979 206.46133301 257.83355957 206.18383789 257.23266602 C204.99330955 254.9873821 203.68505702 253.22510867 202.05859375 251.27734375 C201.47940186 250.57947754 200.90020996 249.88161133 200.3034668 249.16259766 C199.68769775 248.42831543 199.07192871 247.6940332 198.4375 246.9375 C197.16132962 245.40245074 195.88528788 243.86729454 194.609375 242.33203125 C193.98869141 241.58775879 193.36800781 240.84348633 192.72851562 240.07666016 C190.53265069 237.43852073 188.35790158 234.78412676 186.1875 232.125 C185.14142578 230.84496094 185.14142578 230.84496094 184.07421875 229.5390625 C183.38972656 228.70117188 182.70523438 227.86328125 182 227 C180.50014304 225.16654964 179.0001406 223.33321829 177.5 221.5 C175.30774854 218.8210008 173.11580532 216.14175792 170.92578125 213.4609375 C166.29676182 207.7965921 161.65186094 202.14559447 157 196.5 C151.65314796 190.01094999 146.31943682 183.51155167 141 177 C139.50014304 175.16654964 138.0001406 173.33321829 136.5 171.5 C127.5 160.5 118.5 149.5 109.5 138.5 C108.75105469 137.58476562 108.00210938 136.66953125 107.23046875 135.7265625 C105.79500065 133.97182216 104.36006204 132.21664845 102.92578125 130.4609375 C98.29676182 124.7965921 93.65186094 119.14559447 89 113.5 C83.65314796 107.01094999 78.31943682 100.51155167 73 94 C71.50014304 92.16654964 70.0001406 90.33321829 68.5 88.5 C62.5 81.16666667 56.5 73.83333333 50.5 66.5 C49.75105469 65.58476562 49.00210938 64.66953125 48.23046875 63.7265625 C46.79500065 61.97182216 45.36006204 60.21664845 43.92578125 58.4609375 C39.29676182 52.7965921 34.65186094 47.14559447 30 41.5 C26.05606968 36.71356475 22.11445511 31.92537595 18.1875 27.125 C17.15689453 25.86623047 17.15689453 25.86623047 16.10546875 24.58203125 C14.56087307 22.68782393 13.02229269 20.7894548 11.48828125 18.88671875 C10.66714844 17.87222656 9.84601562 16.85773438 9 15.8125 C7.88625 14.42998047 7.88625 14.42998047 6.75 13.01953125 C6.1725 12.35308594 5.595 11.68664062 5 11 C4.67 11 4.34 11 4 11 Z " fill="#BAA77C" transform="translate(700,175)"/>
<path d="M0 0 C17.16 0 34.32 0 52 0 C52 33.33 52 66.66 52 101 C34.84 101 17.68 101 0 101 C0 67.67 0 34.34 0 0 Z " fill="#1B2838" transform="translate(819,556)"/>
<path d="M0 0 C17.16 0 34.32 0 52 0 C52 33.33 52 66.66 52 101 C34.84 101 17.68 101 0 101 C0 67.67 0 34.34 0 0 Z " fill="#1B2838" transform="translate(740,556)"/>
<path d="M0 0 C14.13754819 0 25.98506132 5.92423096 36.3125 15.6875 C50.76390827 31.04357106 52.61080816 47.27726991 52.25 67.3125 C52.1675 73.809375 52.085 80.30625 52 87 C34.84 87 17.68 87 0 87 C0 58.29 0 29.58 0 0 Z " fill="#1B2838" transform="translate(821,442)"/>
<path d="M0 0 C0 28.71 0 57.42 0 87 C-17.16 87 -34.32 87 -52 87 C-52.061875 80.461875 -52.12375 73.92375 -52.1875 67.1875 C-52.21481201 65.14715576 -52.24212402 63.10681152 -52.27026367 61.00463867 C-52.34077996 51.96331859 -52.36326702 43.54931184 -49 35 C-48.71576172 34.27554688 -48.43152344 33.55109375 -48.13867188 32.8046875 C-47.46712486 31.18535428 -46.74134313 29.58859241 -46 28 C-45.34 28 -44.68 28 -44 28 C-43.62681641 26.91138672 -43.62681641 26.91138672 -43.24609375 25.80078125 C-38.8060205 15.82105547 -28.17752669 7.80858791 -18.46875 3.39453125 C-11.68304507 0.80639379 -7.51530843 0 0 0 Z " fill="#1B2838" transform="translate(792,442)"/>
<path d="M0 0 C3.55672127 3.55672127 6.90128671 7.1001956 10.125 10.9375 C10.59873047 11.49888672 11.07246094 12.06027344 11.56054688 12.63867188 C15.43947119 17.26571105 19.16882856 22.00047101 22.87353516 26.76733398 C25.99020843 30.76129716 29.20476329 34.65243668 32.5 38.5 C36.28188195 42.91577693 39.93267103 47.40917906 43.5 52 C47.57104431 57.23824648 51.7734098 62.33780962 56.08154297 67.38232422 C59.49083126 71.37920978 62.79403458 75.44717693 66.05859375 79.5625 C68.82109621 83.03091355 71.63745282 86.45430343 74.44921875 89.8828125 C77.47775564 93.57910602 80.48828508 97.28999827 83.5 101 C87.15882097 105.50647495 90.82125021 110.00976129 94.5 114.5 C100.92765227 122.34689665 107.3135849 130.22777362 113.70703125 138.10253906 C121.58956541 147.81263613 121.58956541 147.81263613 129.5 157.5 C135.92765227 165.34689665 142.3135849 173.22777362 148.70703125 181.10253906 C156.58956541 190.81263613 156.58956541 190.81263613 164.5 200.5 C168.6464454 205.56199265 172.77669858 210.6370094 176.89770508 215.71972656 C179.80409553 219.30349521 182.71976508 222.87902251 185.65234375 226.44140625 C186.2443457 227.16303955 186.83634766 227.88467285 187.44628906 228.62817383 C188.58190905 230.01203156 189.72044843 231.39350027 190.86230469 232.7722168 C191.37567383 233.399104 191.88904297 234.02599121 192.41796875 234.671875 C192.86938232 235.2194043 193.3207959 235.76693359 193.78588867 236.33105469 C195 238 195 238 197 242 C173.57 242 150.14 242 126 242 C126.15811102 259.50146962 126.15811102 259.50146962 126.36035156 277.00244141 C126.37203781 279.20214054 126.38222979 281.40184834 126.390625 283.6015625 C126.41108887 284.73682373 126.43155273 285.87208496 126.45263672 287.04174805 C126.45542397 293.35905522 126.28409644 297.21869532 122 302 C92.79425051 330.39447867 40.73355155 309 0 309 C0 207.03 0 105.06 0 0 Z M4 12 C4 108.69 4 205.38 4 305 C64.31782219 313.57088431 64.31782219 313.57088431 117.97549438 300.64585876 C122.45255683 295.94176563 122.68286085 291.65372146 122.67895508 285.31530762 C122.64825928 284.09879517 122.61756348 282.88228271 122.5859375 281.62890625 C122.57989502 280.49578003 122.57385254 279.36265381 122.56762695 278.19519043 C122.53636037 273.98392018 122.4525918 269.77317147 122.375 265.5625 C122.25125 256.136875 122.1275 246.71125 122 237 C143.45 237 164.9 237 187 237 C185.05329301 233.10658603 182.75331587 229.93906396 180.0625 226.5625 C179.57523438 225.94632813 179.08796875 225.33015625 178.5859375 224.6953125 C174.86117261 220.0130245 171.01823561 215.44100182 167.12719727 210.89672852 C163.81315375 207.00929261 160.63419029 203.0334117 157.5 199 C153.42895569 193.76175352 149.2265902 188.66219038 144.91845703 183.61767578 C141.50916874 179.62079022 138.20596542 175.55282307 134.94140625 171.4375 C132.17890379 167.96908645 129.36254718 164.54569657 126.55078125 161.1171875 C123.52224436 157.42089398 120.51171492 153.71000173 117.5 150 C113.84117903 145.49352505 110.17874979 140.99023871 106.5 136.5 C100.07234773 128.65310335 93.6864151 120.77222638 87.29296875 112.89746094 C79.41043459 103.18736387 79.41043459 103.18736387 71.5 93.5 C65.07234773 85.65310335 58.6864151 77.77222638 52.29296875 69.89746094 C44.41043459 60.18736387 44.41043459 60.18736387 36.5 50.5 C28.37394234 40.5764049 20.28394873 30.62334346 12.25 20.625 C11.47982544 19.67028809 11.47982544 19.67028809 10.6940918 18.69628906 C7.11611022 14.23222044 7.11611022 14.23222044 6 12 C5.34 12 4.68 12 4 12 Z " fill="#B9A67C" transform="translate(925,452)"/>
<path d="M0 0 C22.44 0 44.88 0 68 0 C68 38.61 68 77.22 68 117 C45.56 117 23.12 117 0 117 C0 78.39 0 39.78 0 0 Z M8 8 C8 41.33 8 74.66 8 109 C25.16 109 42.32 109 60 109 C60 75.67 60 42.34 60 8 C42.84 8 25.68 8 8 8 Z " fill="#C3AE80" transform="translate(811,548)"/>
<path d="M0 0 C22.44 0 44.88 0 68 0 C68 38.61 68 77.22 68 117 C45.56 117 23.12 117 0 117 C0 78.39 0 39.78 0 0 Z M8 8 C8 41.33 8 74.66 8 109 C25.16 109 42.32 109 60 109 C60 75.67 60 42.34 60 8 C42.84 8 25.68 8 8 8 Z " fill="#C3AE80" transform="translate(732,548)"/>
<path d="M0 0 C22.6921757 1.33483386 37.49942763 5.76764095 53 22 C67.83949283 39.68802436 68.44559089 59.39235591 68.1875 81.375 C68.125625 88.84125 68.06375 96.3075 68 104 C45.56 104 23.12 104 0 104 C0 69.68 0 35.36 0 0 Z M8 9 C8 37.71 8 66.42 8 96 C25.16 96 42.32 96 60 96 C60.12375 86.2546875 60.12375 86.2546875 60.25 76.3125 C60.30462402 73.27929565 60.30462402 73.27929565 60.36035156 70.18481445 C60.54631761 52.53939126 56.85000941 38.01482332 44.375 24.75 C33.64205124 14.60515802 22.78207658 9 8 9 Z " fill="#C3AE80" transform="translate(813,433)"/>
<path d="M0 0 C0 34.32 0 68.64 0 104 C-22.44 104 -44.88 104 -68 104 C-68.0825 96.78125 -68.165 89.5625 -68.25 82.125 C-68.28641602 79.88734863 -68.32283203 77.64969727 -68.36035156 75.34423828 C-68.56469845 53.56928515 -65.37017604 35.35023392 -50 19 C-35.73808709 5.40093462 -19.37689099 0 0 0 Z M-44.9375 25.625 C-49.92412394 30.63512984 -49.92412394 30.63512984 -52 37 C-52.66 37 -53.32 37 -54 37 C-54.81487171 39.24916619 -55.62696918 41.49926978 -56.4375 43.75 C-56.66759766 44.38421875 -56.89769531 45.0184375 -57.13476562 45.671875 C-58.79645499 50.29570629 -60.12872102 54.29438955 -60.11352539 59.21777344 C-60.11340454 60.04970215 -60.11328369 60.88163086 -60.11315918 61.73876953 C-60.10804321 62.60356934 -60.10292725 63.46836914 -60.09765625 64.359375 C-60.09664917 65.16133301 -60.09564209 65.96329102 -60.09460449 66.78955078 C-60.08938473 69.7763818 -60.07542347 72.76319238 -60.0625 75.75 C-60.041875 82.4325 -60.02125 89.115 -60 96 C-42.84 96 -25.68 96 -8 96 C-8 67.29 -8 38.58 -8 9 C-23.11168699 9 -34.20850955 15.35062779 -44.9375 25.625 Z " fill="#C3AE80" transform="translate(800,433)"/>
</svg>
